HIERARCHY
ROOT pelvis
{
  OFFSET 0 100 0
  CHANNELS 6 Xposition Yposition Zposition Zrotation Xrotation Yrotation
  JOINT pelvis_right_femur
  {
    OFFSET -10.78128 -3.44521 -0.5502486
    CHANNELS 3 Zrotation Xrotation Yrotation
    JOINT right_femur_tibia
    {
      OFFSET -0.8047443 -44.0398 -0.1307829
      CHANNELS 3 Zrotation Xrotation Yrotation
      JOINT right_tibia_foot
      {
        OFFSET 3.006224 -47.83518 -5
        CHANNELS 3 Zrotation Xrotation Yrotation
        End Site
        {
          OFFSET 0 -5 15
        }
      }
    }
  }
  JOINT pelvis_left_femur
  {
    OFFSET 10.78128 -3.44521 -0.5502486
    CHANNELS 3 Zrotation Xrotation Yrotation
    JOINT left_femur_tibia
    {
      OFFSET 0.8047443 -44.0398 -0.1307829
      CHANNELS 3 Zrotation Xrotation Yrotation
      JOINT left_tibia_foot
      {
        OFFSET -4.370144 -48.10324 -4.275266
        CHANNELS 3 Zrotation Xrotation Yrotation
        End Site
        {
          OFFSET 0 -5 15
        }
      }
    }
  }
  JOINT pelvis_spine1
  {
    OFFSET 0 6.468898 -3.129235
    CHANNELS 3 Zrotation Xrotation Yrotation
    JOINT spine1
    {
      OFFSET 0 23.15396 4.99043
      CHANNELS 3 Zrotation Xrotation Yrotation
      JOINT spine2
      {
        OFFSET 0 20.79997 -5.064912
        CHANNELS 3 Zrotation Xrotation Yrotation
        JOINT neck
        {
          OFFSET 0 14.38658 9.616178
          CHANNELS 3 Zrotation Xrotation Yrotation
          End Site
          {
            OFFSET 0 20 0
          }
        }
      }
      JOINT right_manubrium
      {
        OFFSET -5.722621 16.35077 3.967754
        CHANNELS 3 Zrotation Xrotation Yrotation
        JOINT right_clavicle
        {
          OFFSET -13.16364 1.694482 -4.693211
          CHANNELS 3 Zrotation Xrotation Yrotation
          JOINT right_humerus
          {
            OFFSET -28.5034 -0.3100689 -2.792744
            CHANNELS 3 Zrotation Xrotation Yrotation
            JOINT right_radius
            {
              OFFSET -25.15693 0.02248979 -1.271978
              CHANNELS 3 Zrotation Xrotation Yrotation
              End Site
              {
                OFFSET -15 0 0
              }
            }
          }
        }
      }
      JOINT left_manubrium
      {
        OFFSET 5.722621 16.35077 3.967754
        CHANNELS 3 Zrotation Xrotation Yrotation
        JOINT left_clavicle
        {
          OFFSET 13.16364 1.694482 -4.693211
          CHANNELS 3 Zrotation Xrotation Yrotation
          JOINT left_humerus
          {
            OFFSET 29.39168 -1.063119 -2.237045
            CHANNELS 3 Zrotation Xrotation Yrotation
            JOINT left_radius
            {
              OFFSET 24.59957 -0.9528479 0.9047498
              CHANNELS 3 Zrotation Xrotation Yrotation
              End Site
              {
                OFFSET 15 -0 -0
              }
            }
          }
        }
      }
    }
  }
}
MOTION
Frames: 9
Frame Time: 0.0416666666667
0 103.5113 0 2.32387 0.002043763 0.04426553 3.258571 -14.9457 11.92398 -0 35.04132 -0 -2.111532 -17.86581 -3.341772 -8.685695 9.560066 -21.51058 -0 3.857953 -0 20.46387 -9.94677 30.05484 -2.559521 -2.43197 4.567768 2.53758 10.11787 -7.266238 1.708548 21.23163 6.822954 2.976525 -24.58075 10.03858 5.558908 -18.72095 11.48605 86.49116 37.79864 -18.36718 -0 0 13.87465 -8.262802 9.070778 5.092871 6.16444 -20.12976 -1.202948 -90.53883 20.61937 18.50935 0 0 -17.13653 13.92351 12.97528 -2.771119
0.4652766 103.4578 1.863271 1.911718 1.051995 0.0815837 4.142136 -17.91052 12.57357 -0 35.09052 -0 -2.439278 -17.73454 -3.505888 -8.540073 9.895355 -21.55369 -0 4.172159 -0 20.53565 -10.80929 30.16008 -2.524076 -2.310391 4.431378 2.663265 10.18242 -7.379588 1.661705 21.11548 7.062441 3.019421 -24.95186 10.30508 5.491109 -18.69406 11.53744 87.16536 38.35112 -19.11528 -0 0 13.17541 -7.770594 9.058171 4.958288 6.140354 -20.26082 -1.432939 -89.9155 20.60168 17.93527 0 0 -18.86 14.46321 12.15964 -3.178632
0.8522523 103.2971 3.877756 1.231429 1.377671 0.1553143 5.187449 -21.73145 11.52327 -0 33.40336 -0 -3.576055 -15.63362 -2.978834 -7.938731 10.66682 -21.34767 -0 4.978378 -0 19.26558 -12.43592 29.39056 -2.446389 -2.261575 4.336482 2.874172 10.2431 -7.554962 1.569135 21.00884 7.211973 2.986106 -25.43694 10.46575 5.435891 -18.70333 11.60025 87.71112 38.40692 -19.9324 -0 0 12.5966 -7.263656 9.008863 4.855625 6.075535 -20.42907 -1.62969 -89.63163 20.90055 17.75172 0 0 -20.1837 14.6055 11.54267 -3.081116
1.182271 103.0726 6.063893 0.6704841 1.783647 0.2391112 6.023345 -24.86494 10.8829 -0 31.84277 -0 -4.350611 -13.97355 -2.648012 -7.456388 11.28202 -21.06743 -0 5.659613 -0 17.95043 -13.91867 28.59528 -2.377067 -2.191136 4.24992 3.050015 10.28746 -7.685245 1.482729 20.91862 7.360295 2.962418 -25.82384 10.60812 5.37982 -18.7024 11.66154 88.17565 38.51135 -20.58746 -0 0 12.05124 -6.849287 8.97222 4.819448 6.002042 -20.5612 -1.827949 -89.3074 21.12031 17.53426 0 0 -21.45768 14.74728 10.92653 -3.008211
1.468852 102.7556 8.512224 0.1105312 2.159321 0.3433164 6.808369 -27.96145 10.0837 -0 29.64036 -0 -5.080955 -11.98745 -2.234285 -6.954767 11.90855 -20.56256 -0 6.497906 -0 16.42454 -15.41557 27.50579 -2.300793 -2.120077 4.166529 3.243217 10.32287 -7.813842 1.384898 20.84502 7.48206 2.918561 -26.19565 10.70913 5.330496 -18.68902 11.73018 88.5653 38.49341 -21.18776 -0 0 11.51964 -6.465839 8.923773 4.831058 5.895318 -20.67822 -2.033761 -89.04469 21.39253 17.3906 0 0 -22.5988 14.76346 10.35442 -2.79385
1.72564 102.3464 11.28863 -0.3787953 2.538436 0.4767422 7.455642 -30.64011 9.263654 -0 27.07541 -0 -5.688121 -9.978796 -1.822477 -6.518358 12.48759 -19.88485 -0 7.492834 -0 14.86622 -16.71568 26.22781 -2.226198 -2.031727 4.086019 3.425568 10.34605 -7.915705 1.289869 20.8005 7.571833 2.863986 -26.47967 10.76115 5.294101 -18.64056 11.80126 88.84727 38.42041 -21.6496 -0 0 11.01183 -6.161921 8.880544 4.899831 5.756605 -20.75933 -2.244284 -88.80286 21.64512 17.26363 0 0 -23.56512 14.68331 9.845853 -2.500271
1.96196 101.863 14.46984 -0.8035058 2.941326 0.6564121 7.967347 -32.83185 8.365779 -0 24.18161 -0 -6.246831 -7.955008 -1.407792 -6.154289 13.03302 -19.00827 -0 8.852143 -0 13.26456 -17.72736 24.69957 -2.153395 -1.927163 4.003961 3.603168 10.35924 -7.998548 1.197074 20.78485 7.626838 2.797027 -26.68562 10.76204 5.272982 -18.55222 11.87521 89.03099 38.28021 -21.99552 -0 0 10.51852 -5.927752 8.838552 5.016913 5.583989 -20.80753 -2.461494 -88.58632 21.88689 17.15353 0 0 -24.34886 14.49803 9.405845 -2.118599
2.182675 101.3557 18.11494 -1.162379 3.351593 0.8988115 8.328593 -34.27784 7.411403 -0 21.29776 -0 -6.820138 -6.089483 -1.034579 -5.869025 13.50843 -17.96802 -0 10.81029 -0 11.5922 -18.28738 22.90405 -2.085673 -1.805105 3.920559 3.767356 10.36377 -8.059249 1.111725 20.79868 7.645589 2.722005 -26.79856 10.7116 5.268789 -18.42022 11.9491 89.11796 38.0943 -22.2172 -0 0 10.04632 -5.773474 8.802748 5.175116 5.383601 -20.82143 -2.680941 -88.38481 22.09678 17.04293 0 0 -24.93964 14.22247 9.042608 -1.674493
2.388958 100.9105 22.26218 -1.483442 3.709927 1.210823 8.570057 -34.75109 6.435222 -0 18.82763 -0 -7.493225 -4.537286 -0.7402782 -5.624626 13.83504 -16.80078 -0 13.71517 -0 9.769387 -18.20826 20.80314 -2.024505 -1.668054 3.836486 3.915358 10.36192 -8.100007 1.03602 20.8399 7.627706 2.641326 -26.81989 10.61146 5.281303 -18.24661 12.02094 89.11681 37.86858 -22.32415 -0 0 9.601061 -5.699617 8.774002 5.365374 5.161336 -20.80396 -2.898625 -88.19807 22.27025 16.92794 0 0 -25.33497 13.86395 8.7596 -1.178973
